<svg xmlns="http://www.w3.org/2000/svg">
<defs>
<clipPath id="a">
      <path d="M0 0h20v20H0z"/>
    </clipPath>
</defs>
<symbol id="facebook" viewBox="0 0 20 20">
  <path d="M5.587 10.587H7.54v8.123c0 .16.129.29.288.29h3.311c.159 0 .287-.13.287-.29v-8.085h2.245c.146 0 .27-.11.286-.257l.34-2.99a.292.292 0 0 0-.07-.227.286.286 0 0 0-.215-.097h-2.586V5.179c0-.565.301-.851.896-.851h1.69c.16 0 .288-.13.288-.29V1.291a.29.29 0 0 0-.288-.29h-2.33c-.016 0-.053-.002-.107-.002-.404 0-1.81.08-2.92 1.112-1.23 1.143-1.058 2.512-1.018 2.75v2.192h-2.05a.289.289 0 0 0-.287.29v2.952c0 .16.128.29.287.29Z"/>
  <path d="M11.036 19H7.824a.638.638 0 0 1-.638-.637v-7.441H5.651a.638.638 0 0 1-.638-.637V7.45c0-.351.286-.637.638-.637h1.63V5.096c-.054-.348-.177-1.756 1.103-2.934C9.557 1.084 11.034 1 11.46 1l.112.002h2.252c.352 0 .638.286.638.637v2.636a.638.638 0 0 1-.638.637h-1.64c-.428 0-.51.162-.51.46v1.44h2.15a.638.638 0 0 1 .633.711l-.33 2.871a.637.637 0 0 1-.634.565h-1.819v7.404a.638.638 0 0 1-.637.637Zm-3.133-.717h3.053V10.6c0-.198.16-.358.359-.358h2.106l.313-2.712h-2.42a.359.359 0 0 1-.358-.359v-1.8c0-.736.459-1.176 1.227-1.176h1.56V1.72h-2.18a1.855 1.855 0 0 0-.104-.002c-.359 0-1.608.07-2.59.973-1.05.966-.914 2.098-.876 2.315a.36.36 0 0 1 .005.062V7.17c0 .198-.16.359-.359.359H5.73v2.675h1.815c.198 0 .358.16.358.358v7.72Z"/>
  <path d="M8.625 13.98a.359.359 0 0 1-.358-.359v-.179a.359.359 0 1 1 .717 0v.18c0 .197-.16.358-.359.358Zm0 3.872a.359.359 0 0 1-.358-.358v-2.725a.359.359 0 0 1 .717 0v2.725c0 .198-.16.358-.359.358Z"/>
</symbol>
<symbol id="instagram" viewBox="0 0 20 20">
  <path d="M13.641 18.663H6.36c-2.757 0-5-2.243-5-5V6.337c0-2.756 2.243-5 5-5h7.282c2.757 0 5 2.244 5 5v7.328c0 2.756-2.243 5-5 5ZM6.36 3.391a2.948 2.948 0 0 0-2.945 2.945v7.328a2.948 2.948 0 0 0 2.945 2.945h7.282a2.948 2.948 0 0 0 2.945-2.945V6.336a2.948 2.948 0 0 0-2.945-2.945H6.36Z"/>
  <path d="M10 14.286A4.291 4.291 0 0 1 5.713 10 4.291 4.291 0 0 1 10 5.713 4.291 4.291 0 0 1 14.286 10 4.291 4.291 0 0 1 10 14.286Zm0-6.569A2.285 2.285 0 0 0 7.717 10 2.285 2.285 0 0 0 10 12.282 2.285 2.285 0 0 0 12.282 10 2.285 2.285 0 0 0 10 7.717Zm4.387-1.347a.758.758 0 1 1 .002-1.516.758.758 0 0 1-.002 1.516Z"/>
  <path d="M13.641 19.023H6.36A5.365 5.365 0 0 1 1 13.663V6.337A5.365 5.365 0 0 1 6.359.978h7.282A5.365 5.365 0 0 1 19 6.336v7.328a5.365 5.365 0 0 1-5.359 5.359ZM6.36 1.696a4.645 4.645 0 0 0-4.64 4.64v7.328a4.645 4.645 0 0 0 4.64 4.64h7.282a4.645 4.645 0 0 0 4.64-4.64V6.336a4.645 4.645 0 0 0-4.64-4.64H6.36Zm7.282 15.272H6.36a3.308 3.308 0 0 1-3.305-3.304V6.336A3.308 3.308 0 0 1 6.36 3.032h7.282a3.308 3.308 0 0 1 3.304 3.304v7.328a3.308 3.308 0 0 1-3.304 3.304ZM6.36 3.751a2.588 2.588 0 0 0-2.586 2.585v7.328a2.588 2.588 0 0 0 2.586 2.585h7.282a2.588 2.588 0 0 0 2.586-2.585V6.336a2.588 2.588 0 0 0-2.586-2.585H6.36Z"/>
  <path d="M10 14.646A4.651 4.651 0 0 1 5.354 10 4.651 4.651 0 0 1 10 5.354 4.651 4.651 0 0 1 14.646 10 4.651 4.651 0 0 1 10 14.646Zm0-8.573A3.931 3.931 0 0 0 6.073 10 3.931 3.931 0 0 0 10 13.927 3.932 3.932 0 0 0 13.927 10 3.932 3.932 0 0 0 10 6.073Zm0 6.569A2.645 2.645 0 0 1 7.358 10 2.645 2.645 0 0 1 10 7.358 2.645 2.645 0 0 1 12.642 10 2.645 2.645 0 0 1 10 12.642Zm0-4.565c-1.06 0-1.923.863-1.923 1.923S8.94 11.923 10 11.923s1.923-.863 1.923-1.923S11.06 8.077 10 8.077Z"/>
  <path d="M14.387 6.73a1.118 1.118 0 0 1 0-2.233c.616 0 1.117.5 1.117 1.116 0 .615-.501 1.116-1.117 1.116Zm0-1.514a.398.398 0 1 0 .001.795.398.398 0 0 0 0-.795Zm-4.962 12.8H6.046a.36.36 0 1 1 0-.719h3.379a.36.36 0 1 1 0 .72Zm1.366 0h-.216a.36.36 0 1 1 0-.719h.216a.36.36 0 1 1 0 .72Z"/>
</symbol>
<symbol id="vk" viewBox="0 0 20 20">
  <g clip-path="url(#a)">
    <path d="M16.925 11.476c.637.622 1.31 1.207 1.88 1.892a5.5 5.5 0 0 1 .675.97c.259.503.024 1.055-.426 1.085l-2.797-.001c-.722.06-1.297-.23-1.781-.724-.388-.395-.746-.815-1.119-1.222a2.65 2.65 0 0 0-.503-.448c-.382-.248-.713-.172-.932.226-.222.405-.272.854-.294 1.306-.03.658-.23.832-.89.862-1.415.066-2.757-.148-4.004-.861-1.099-.629-1.951-1.517-2.693-2.522C2.596 10.082 1.49 7.932.496 5.721c-.224-.498-.06-.766.49-.775a76.001 76.001 0 0 1 2.738-.002c.371.006.617.219.76.569a16.978 16.978 0 0 0 1.856 3.44c.202.285.408.57.701.77.325.223.572.149.724-.212.097-.23.14-.476.161-.722.073-.844.082-1.687-.045-2.528-.078-.525-.373-.865-.897-.965-.268-.05-.228-.15-.098-.303.224-.263.436-.427.857-.427h3.162c.498.099.608.322.676.823l.003 3.512c-.005.194.097.77.446.897.28.092.464-.132.632-.309.757-.803 1.297-1.753 1.78-2.736.214-.432.398-.881.576-1.33.132-.333.34-.497.715-.49l3.043.003c.09 0 .181.002.269.017.512.087.653.308.495.808-.25.786-.735 1.44-1.21 2.098-.507.702-1.05 1.38-1.553 2.087-.463.645-.426.97.148 1.53Z"/>
    <path d="M10.263 15.832c-1.42 0-2.642-.304-3.727-.925-1.032-.59-1.927-1.427-2.816-2.63C2.457 10.565 1.35 8.593.132 5.883c-.17-.379-.176-.698-.017-.949.159-.25.45-.38.863-.387a75.73 75.73 0 0 1 2.753-.001c.51.007.91.297 1.121.816.515 1.266 1.108 2.365 1.813 3.36.176.249.359.506.601.672h.001a.088.088 0 0 0 .13-.037l.001-.002c.067-.159.109-.35.131-.602.08-.936.067-1.71-.042-2.434-.055-.372-.233-.567-.578-.632-.098-.018-.395-.075-.495-.358-.1-.28.095-.508.168-.594.252-.295.567-.568 1.161-.568h3.162a.44.44 0 0 1 .073.007c.797.156.93.659.998 1.16a.415.415 0 0 1 .004.054l.002 3.512v.012a.922.922 0 0 0 .048.272c.042.132.212.17.306.069l.002-.002.034-.036c.767-.814 1.296-1.79 1.712-2.638a17.7 17.7 0 0 0 .564-1.302c.199-.5.563-.749 1.089-.74l3.04.003c.104 0 .216.001.335.022.243.04.587.131.773.436.185.304.108.65.034.885-.26.817-.744 1.488-1.212 2.136l-.054.075a53.3 53.3 0 0 1-.733.982c-.273.36-.555.731-.82 1.102-.176.247-.253.414-.242.527.012.114.121.269.345.487.167.163.34.326.507.485.475.45.966.915 1.401 1.437.24.289.513.638.723 1.043.2.39.204.83.008 1.178a.936.936 0 0 1-.788.488l-2.782-.002c-.774.06-1.474-.224-2.08-.843-.27-.273-.526-.56-.773-.837-.117-.13-.237-.265-.356-.395a2.302 2.302 0 0 0-.426-.382c-.091-.06-.173-.088-.219-.076-.043.01-.098.07-.146.16-.175.316-.225.681-.247 1.132-.038.853-.395 1.201-1.27 1.24a9.11 9.11 0 0 1-.492.013ZM.799 5.369a.677.677 0 0 0 .06.189c1.195 2.656 2.275 4.582 3.502 6.245.821 1.112 1.638 1.879 2.57 2.413 1.073.613 2.312.877 3.787.808.307-.014.4-.06.427-.086.02-.02.071-.099.085-.396.023-.487.081-1.002.343-1.479.202-.369.465-.502.65-.549.188-.047.487-.054.848.18.24.157.428.347.58.513l.362.402c.242.27.491.55.747.81.45.459.916.652 1.464.606a.4.4 0 0 1 .033-.001h2.78c.025-.002.072-.014.11-.082.048-.084.07-.243-.021-.42a5.164 5.164 0 0 0-.627-.9c-.404-.485-.858-.914-1.337-1.368-.17-.16-.344-.326-.515-.493-.722-.704-.773-1.24-.194-2.047.27-.38.556-.756.832-1.12.24-.317.487-.643.722-.968l.054-.075c.451-.625.878-1.215 1.099-1.91a.634.634 0 0 0 .042-.228.645.645 0 0 0-.224-.067 1.297 1.297 0 0 0-.202-.01l-3.043-.004h-.008c-.179-.003-.254.03-.337.239-.165.414-.36.894-.59 1.36-.441.899-1.007 1.94-1.847 2.831l-.031.034c-.179.19-.511.546-1.014.381l-.013-.004c-.552-.203-.714-.943-.708-1.277l-.002-3.479c-.018-.124-.047-.283-.097-.35-.012-.016-.047-.063-.222-.102h-3.12a.623.623 0 0 0-.3.06c.457.208.748.614.831 1.177.119.786.134 1.62.048 2.621-.03.338-.09.606-.19.843-.156.368-.387.504-.554.553-.166.048-.433.06-.763-.167-.36-.246-.605-.591-.801-.869-.74-1.045-1.362-2.197-1.9-3.52-.114-.278-.265-.318-.397-.32a74.92 74.92 0 0 0-2.725.001.683.683 0 0 0-.194.025Z"/>
    <path d="M2.55 7.205a.398.398 0 0 1-.355-.22 43.57 43.57 0 0 1-.178-.354.398.398 0 1 1 .715-.353c.057.117.115.233.174.348a.398.398 0 0 1-.356.579Zm2.534 4.19a.398.398 0 0 1-.32-.162 27.228 27.228 0 0 1-1.925-3.027.398.398 0 0 1 .697-.386 26.432 26.432 0 0 0 1.869 2.94.398.398 0 0 1-.32.635Z"/>
  </g>
  
</symbol>
</svg>