<svg width="147" height="66" viewBox="0 0 147 66" fill="none" xmlns="http://www.w3.org/2000/svg">
<mask id="path-1-inside-1_589_1140" fill="white">
<path d="M35.0947 19.5464H136.836C141.935 19.5464 146.069 23.6804 146.069 28.7798V56.4546C146.069 61.5538 141.935 65.688 136.836 65.688H25.5361C20.437 65.6879 16.3029 61.5538 16.3027 56.4546V28.7798C16.3027 28.4824 16.3182 28.1881 16.3457 27.8979L0.432617 0.284668L35.0947 19.5464Z"/>
</mask>
<path d="M35.0947 19.5464H136.836C141.935 19.5464 146.069 23.6804 146.069 28.7798V56.4546C146.069 61.5538 141.935 65.688 136.836 65.688H25.5361C20.437 65.6879 16.3029 61.5538 16.3027 56.4546V28.7798C16.3027 28.4824 16.3182 28.1881 16.3457 27.8979L0.432617 0.284668L35.0947 19.5464Z" fill="#348DE4"/>
<path d="M35.0947 19.5464L34.4967 20.6225L34.7756 20.7775H35.0947V19.5464ZM146.069 56.4546L147.3 56.4546V56.4546H146.069ZM25.5361 65.688L25.5361 66.9191H25.5361V65.688ZM16.3027 56.4546H15.0716V56.4546L16.3027 56.4546ZM16.3457 27.8979L17.5713 28.0141L17.6083 27.6233L17.4124 27.2833L16.3457 27.8979ZM0.432617 0.284668L1.03061 -0.791439L-2.85169 -2.94883L-0.634036 0.899363L0.432617 0.284668ZM35.0947 19.5464V20.7775H136.836V19.5464V18.3153H35.0947V19.5464ZM136.836 19.5464V20.7775C141.255 20.7775 144.838 24.3603 144.838 28.7798H146.069H147.3C147.3 23.0005 142.615 18.3153 136.836 18.3153V19.5464ZM146.069 28.7798H144.838V56.4546H146.069H147.3V28.7798H146.069ZM146.069 56.4546L144.838 56.4546C144.838 60.8739 141.255 64.4569 136.836 64.4569V65.688V66.9191C142.615 66.9191 147.3 62.2337 147.3 56.4546L146.069 56.4546ZM136.836 65.688V64.4569H25.5361V65.688V66.9191H136.836V65.688ZM25.5361 65.688L25.5362 64.4569C21.1169 64.4568 17.534 60.8738 17.5338 56.4546L16.3027 56.4546L15.0716 56.4546C15.0718 62.2337 19.757 66.9189 25.5361 66.9191L25.5361 65.688ZM16.3027 56.4546H17.5338V28.7798H16.3027H15.0716V56.4546H16.3027ZM16.3027 28.7798H17.5338C17.5338 28.525 17.5471 28.2697 17.5713 28.0141L16.3457 27.8979L15.1201 27.7818C15.0893 28.1066 15.0716 28.4397 15.0716 28.7798H16.3027ZM16.3457 27.8979L17.4124 27.2833L1.49927 -0.330027L0.432617 0.284668L-0.634036 0.899363L15.279 28.5126L16.3457 27.8979ZM0.432617 0.284668L-0.165375 1.36077L34.4967 20.6225L35.0947 19.5464L35.6927 18.4703L1.03061 -0.791439L0.432617 0.284668Z" fill="#348DE4" mask="url(#path-1-inside-1_589_1140)"/>
</svg>
