<svg width="243" height="84" viewBox="0 0 243 84" fill="none" xmlns="http://www.w3.org/2000/svg">
<mask id="path-1-inside-1_581_895" fill="white">
<path d="M227.499 0C235.783 0 242.499 6.71573 242.499 15V59.96C242.499 68.244 235.783 74.96 227.499 74.96H55.2939L0.0107422 84L31.6855 57.1641V15C31.6855 6.71573 38.4013 0 46.6855 0H227.499Z"/>
</mask>
<path d="M227.499 0C235.783 0 242.499 6.71573 242.499 15V59.96C242.499 68.244 235.783 74.96 227.499 74.96H55.2939L0.0107422 84L31.6855 57.1641V15C31.6855 6.71573 38.4013 0 46.6855 0H227.499Z" fill="#348DE4"/>
<path d="M242.499 59.96L244.499 59.96V59.96H242.499ZM55.2939 74.96V72.96H55.1315L54.9712 72.9862L55.2939 74.96ZM0.0107422 84L-1.2821 82.474L-6.78726 87.1382L0.3335 85.9738L0.0107422 84ZM31.6855 57.1641L32.9784 58.69L33.6855 58.0909V57.1641H31.6855ZM227.499 0V2C234.679 2 240.499 7.8203 240.499 15H242.499H244.499C244.499 5.61116 236.888 -2 227.499 -2V0ZM242.499 15H240.499V59.96H242.499H244.499V15H242.499ZM242.499 59.96L240.499 59.9599C240.499 67.1395 234.678 72.96 227.499 72.96V74.96V76.96C236.888 76.96 244.499 69.3485 244.499 59.96L242.499 59.96ZM227.499 74.96V72.96H55.2939V74.96V76.96H227.499V74.96ZM55.2939 74.96L54.9712 72.9862L-0.312016 82.0262L0.0107422 84L0.3335 85.9738L55.6167 76.9337L55.2939 74.96ZM0.0107422 84L1.30359 85.526L32.9784 58.69L31.6855 57.1641L30.3927 55.6381L-1.2821 82.474L0.0107422 84ZM31.6855 57.1641H33.6855V15H31.6855H29.6855V57.1641H31.6855ZM31.6855 15H33.6855C33.6855 7.8203 39.5058 2 46.6855 2V0V-2C37.2967 -2 29.6855 5.61116 29.6855 15H31.6855ZM46.6855 0V2H227.499V0V-2H46.6855V0Z" fill="#348DE4" mask="url(#path-1-inside-1_581_895)"/>
</svg>
