<svg xmlns="http://www.w3.org/2000/svg" width="20" height="20" fill="currentColor" viewBox="0 0 20 20">
  <path d="M5.587 10.587H7.54v8.123c0 .16.129.29.288.29h3.311c.159 0 .287-.13.287-.29v-8.085h2.245c.146 0 .27-.11.286-.257l.34-2.99a.292.292 0 0 0-.07-.227.286.286 0 0 0-.215-.097h-2.586V5.179c0-.565.301-.851.896-.851h1.69c.16 0 .288-.13.288-.29V1.291a.29.29 0 0 0-.288-.29h-2.33c-.016 0-.053-.002-.107-.002-.404 0-1.81.08-2.92 1.112-1.23 1.143-1.058 2.512-1.018 2.75v2.192h-2.05a.289.289 0 0 0-.287.29v2.952c0 .16.128.29.287.29Z"/>
  <path d="M11.036 19H7.824a.638.638 0 0 1-.638-.637v-7.441H5.651a.638.638 0 0 1-.638-.637V7.45c0-.351.286-.637.638-.637h1.63V5.096c-.054-.348-.177-1.756 1.103-2.934C9.557 1.084 11.034 1 11.46 1l.112.002h2.252c.352 0 .638.286.638.637v2.636a.638.638 0 0 1-.638.637h-1.64c-.428 0-.51.162-.51.46v1.44h2.15a.638.638 0 0 1 .633.711l-.33 2.871a.637.637 0 0 1-.634.565h-1.819v7.404a.638.638 0 0 1-.637.637Zm-3.133-.717h3.053V10.6c0-.198.16-.358.359-.358h2.106l.313-2.712h-2.42a.359.359 0 0 1-.358-.359v-1.8c0-.736.459-1.176 1.227-1.176h1.56V1.72h-2.18a1.855 1.855 0 0 0-.104-.002c-.359 0-1.608.07-2.59.973-1.05.966-.914 2.098-.876 2.315a.36.36 0 0 1 .005.062V7.17c0 .198-.16.359-.359.359H5.73v2.675h1.815c.198 0 .358.16.358.358v7.72Z"/>
  <path d="M8.625 13.98a.359.359 0 0 1-.358-.359v-.179a.359.359 0 1 1 .717 0v.18c0 .197-.16.358-.359.358Zm0 3.872a.359.359 0 0 1-.358-.358v-2.725a.359.359 0 0 1 .717 0v2.725c0 .198-.16.358-.359.358Z"/>
</svg>
