<svg xmlns="http://www.w3.org/2000/svg" width="20" height="20" fill="currentColor" viewBox="0 0 20 20">
  <path d="M13.641 18.663H6.36c-2.757 0-5-2.243-5-5V6.337c0-2.756 2.243-5 5-5h7.282c2.757 0 5 2.244 5 5v7.328c0 2.756-2.243 5-5 5ZM6.36 3.391a2.948 2.948 0 0 0-2.945 2.945v7.328a2.948 2.948 0 0 0 2.945 2.945h7.282a2.948 2.948 0 0 0 2.945-2.945V6.336a2.948 2.948 0 0 0-2.945-2.945H6.36Z"/>
  <path d="M10 14.286A4.291 4.291 0 0 1 5.713 10 4.291 4.291 0 0 1 10 5.713 4.291 4.291 0 0 1 14.286 10 4.291 4.291 0 0 1 10 14.286Zm0-6.569A2.285 2.285 0 0 0 7.717 10 2.285 2.285 0 0 0 10 12.282 2.285 2.285 0 0 0 12.282 10 2.285 2.285 0 0 0 10 7.717Zm4.387-1.347a.758.758 0 1 1 .002-1.516.758.758 0 0 1-.002 1.516Z"/>
  <path d="M13.641 19.023H6.36A5.365 5.365 0 0 1 1 13.663V6.337A5.365 5.365 0 0 1 6.359.978h7.282A5.365 5.365 0 0 1 19 6.336v7.328a5.365 5.365 0 0 1-5.359 5.359ZM6.36 1.696a4.645 4.645 0 0 0-4.64 4.64v7.328a4.645 4.645 0 0 0 4.64 4.64h7.282a4.645 4.645 0 0 0 4.64-4.64V6.336a4.645 4.645 0 0 0-4.64-4.64H6.36Zm7.282 15.272H6.36a3.308 3.308 0 0 1-3.305-3.304V6.336A3.308 3.308 0 0 1 6.36 3.032h7.282a3.308 3.308 0 0 1 3.304 3.304v7.328a3.308 3.308 0 0 1-3.304 3.304ZM6.36 3.751a2.588 2.588 0 0 0-2.586 2.585v7.328a2.588 2.588 0 0 0 2.586 2.585h7.282a2.588 2.588 0 0 0 2.586-2.585V6.336a2.588 2.588 0 0 0-2.586-2.585H6.36Z"/>
  <path d="M10 14.646A4.651 4.651 0 0 1 5.354 10 4.651 4.651 0 0 1 10 5.354 4.651 4.651 0 0 1 14.646 10 4.651 4.651 0 0 1 10 14.646Zm0-8.573A3.931 3.931 0 0 0 6.073 10 3.931 3.931 0 0 0 10 13.927 3.932 3.932 0 0 0 13.927 10 3.932 3.932 0 0 0 10 6.073Zm0 6.569A2.645 2.645 0 0 1 7.358 10 2.645 2.645 0 0 1 10 7.358 2.645 2.645 0 0 1 12.642 10 2.645 2.645 0 0 1 10 12.642Zm0-4.565c-1.06 0-1.923.863-1.923 1.923S8.94 11.923 10 11.923s1.923-.863 1.923-1.923S11.06 8.077 10 8.077Z"/>
  <path d="M14.387 6.73a1.118 1.118 0 0 1 0-2.233c.616 0 1.117.5 1.117 1.116 0 .615-.501 1.116-1.117 1.116Zm0-1.514a.398.398 0 1 0 .001.795.398.398 0 0 0 0-.795Zm-4.962 12.8H6.046a.36.36 0 1 1 0-.719h3.379a.36.36 0 1 1 0 .72Zm1.366 0h-.216a.36.36 0 1 1 0-.719h.216a.36.36 0 1 1 0 .72Z"/>
</svg>
